<svg xmlns="http://www.w3.org/2000/svg" xmlns:xlink="http://www.w3.org/1999/xlink" width="500" zoomAndPan="magnify" viewBox="0 0 375 374.999991" height="500" preserveAspectRatio="xMidYMid meet" version="1.0"><path fill="#337b3c" d="M 317.195312 121.824219 C 313.765625 118.527344 310.179688 115.40625 306.441406 112.464844 C 302.703125 109.519531 298.828125 106.765625 294.816406 104.207031 C 290.808594 101.644531 286.679688 99.285156 282.4375 97.128906 C 278.195312 94.972656 273.859375 93.03125 269.425781 91.300781 C 264.992188 89.570312 260.484375 88.066406 255.902344 86.78125 C 251.320312 85.496094 246.6875 84.4375 242.003906 83.609375 C 237.316406 82.777344 232.601562 82.179688 227.859375 81.816406 C 223.113281 81.453125 218.363281 81.320312 213.605469 81.421875 L 78.523438 84.945312 L 123.894531 37.5 C 124.378906 37.019531 124.839844 36.515625 125.273438 35.992188 C 125.707031 35.464844 126.117188 34.917969 126.496094 34.351562 C 126.878906 33.789062 127.230469 33.203125 127.550781 32.601562 C 127.875 32.003906 128.167969 31.386719 128.429688 30.757812 C 128.691406 30.128906 128.921875 29.488281 129.121094 28.835938 C 129.320312 28.183594 129.488281 27.523438 129.621094 26.851562 C 129.753906 26.183594 129.855469 25.511719 129.921875 24.832031 C 129.988281 24.152344 130.023438 23.472656 130.023438 22.789062 C 130.023438 22.109375 129.988281 21.425781 129.921875 20.75 C 129.855469 20.070312 129.753906 19.394531 129.621094 18.726562 C 129.488281 18.058594 129.320312 17.398438 129.121094 16.746094 C 128.921875 16.09375 128.691406 15.453125 128.429688 14.824219 C 128.167969 14.191406 127.875 13.578125 127.550781 12.976562 C 127.230469 12.375 126.878906 11.792969 126.496094 11.226562 C 126.117188 10.660156 125.707031 10.113281 125.273438 9.589844 C 124.839844 9.0625 124.378906 8.558594 123.894531 8.082031 C 123.414062 7.605469 122.914062 7.152344 122.390625 6.722656 C 121.867188 6.296875 121.324219 5.894531 120.761719 5.519531 C 120.199219 5.148438 119.617188 4.800781 119.019531 4.484375 C 118.425781 4.167969 117.8125 3.878906 117.1875 3.621094 C 116.5625 3.363281 115.929688 3.136719 115.28125 2.941406 C 114.632812 2.746094 113.980469 2.582031 113.316406 2.449219 C 112.652344 2.320312 111.984375 2.21875 111.3125 2.15625 C 110.640625 2.089844 109.964844 2.054688 109.289062 2.054688 C 108.613281 2.054688 107.9375 2.089844 107.265625 2.15625 C 106.59375 2.21875 105.925781 2.320312 105.261719 2.449219 C 104.597656 2.582031 103.945312 2.746094 103.296875 2.941406 C 102.648438 3.136719 102.011719 3.363281 101.386719 3.621094 C 100.765625 3.878906 100.152344 4.167969 99.554688 4.484375 C 98.960938 4.800781 98.378906 5.148438 97.816406 5.519531 C 97.253906 5.894531 96.710938 6.296875 96.1875 6.722656 C 95.664062 7.152344 95.160156 7.605469 94.683594 8.082031 L 12.84375 92.609375 C 12.367188 93.089844 11.917969 93.589844 11.488281 94.113281 C 11.0625 94.640625 10.660156 95.183594 10.285156 95.746094 C 9.914062 96.308594 9.566406 96.886719 9.25 97.484375 C 8.929688 98.082031 8.644531 98.691406 8.386719 99.316406 C 8.128906 99.941406 7.902344 100.578125 7.707031 101.226562 C 7.511719 101.871094 7.347656 102.527344 7.214844 103.191406 C 7.085938 103.851562 6.984375 104.519531 6.917969 105.195312 C 6.855469 105.867188 6.820312 106.539062 6.820312 107.21875 C 6.820312 107.894531 6.855469 108.566406 6.917969 109.238281 C 6.984375 109.914062 7.085938 110.582031 7.214844 111.242188 C 7.347656 111.90625 7.511719 112.5625 7.707031 113.207031 C 7.902344 113.855469 8.128906 114.492188 8.386719 115.117188 C 8.644531 115.742188 8.929688 116.351562 9.25 116.949219 C 9.566406 117.546875 9.914062 118.125 10.285156 118.6875 C 10.660156 119.25 11.0625 119.796875 11.488281 120.320312 C 11.917969 120.84375 12.367188 121.34375 12.84375 121.824219 L 97.582031 202.832031 C 99.503906 204.683594 101.699219 206.109375 104.171875 207.113281 C 106.640625 208.113281 109.210938 208.621094 111.878906 208.632812 C 113.273438 208.628906 114.65625 208.484375 116.019531 208.199219 C 117.386719 207.914062 118.710938 207.496094 119.992188 206.945312 C 121.273438 206.390625 122.488281 205.71875 123.632812 204.921875 C 124.777344 204.125 125.832031 203.21875 126.796875 202.210938 C 127.28125 201.730469 127.738281 201.226562 128.175781 200.699219 C 128.609375 200.175781 129.015625 199.628906 129.398438 199.0625 C 129.777344 198.496094 130.128906 197.914062 130.453125 197.3125 C 130.777344 196.710938 131.066406 196.097656 131.332031 195.46875 C 131.59375 194.839844 131.824219 194.195312 132.023438 193.542969 C 132.222656 192.890625 132.386719 192.230469 132.523438 191.5625 C 132.65625 190.894531 132.757812 190.21875 132.824219 189.542969 C 132.890625 188.863281 132.925781 188.183594 132.925781 187.5 C 132.925781 186.816406 132.890625 186.136719 132.824219 185.457031 C 132.757812 184.78125 132.65625 184.105469 132.523438 183.4375 C 132.386719 182.769531 132.222656 182.109375 132.023438 181.457031 C 131.824219 180.804688 131.59375 180.160156 131.332031 179.53125 C 131.066406 178.902344 130.777344 178.289062 130.453125 177.6875 C 130.128906 177.085938 129.777344 176.503906 129.398438 175.9375 C 129.015625 175.371094 128.609375 174.824219 128.175781 174.300781 C 127.738281 173.773438 127.28125 173.269531 126.796875 172.789062 L 77.277344 126.382812 L 214.640625 123.894531 C 217.996094 123.777344 221.347656 123.828125 224.699219 124.042969 C 228.050781 124.261719 231.382812 124.640625 234.695312 125.1875 C 238.007812 125.734375 241.285156 126.445312 244.527344 127.316406 C 247.769531 128.191406 250.960938 129.21875 254.101562 130.410156 C 257.242188 131.597656 260.316406 132.9375 263.320312 134.433594 C 266.328125 135.925781 269.253906 137.5625 272.097656 139.347656 C 274.945312 141.132812 277.691406 143.050781 280.347656 145.109375 C 283 147.164062 285.546875 149.347656 287.984375 151.65625 C 289.824219 153.421875 291.597656 155.25 293.304688 157.144531 C 295.011719 159.039062 296.644531 160.996094 298.207031 163.011719 C 299.769531 165.027344 301.253906 167.097656 302.664062 169.222656 C 304.070312 171.347656 305.402344 173.523438 306.648438 175.746094 C 307.898438 177.96875 309.0625 180.234375 310.144531 182.542969 C 311.222656 184.851562 312.21875 187.199219 313.125 189.582031 C 314.035156 191.964844 314.851562 194.378906 315.582031 196.820312 C 316.3125 199.265625 316.949219 201.730469 317.5 204.222656 C 318.046875 206.710938 318.5 209.21875 318.863281 211.742188 C 319.226562 214.265625 319.492188 216.800781 319.667969 219.34375 C 319.84375 221.886719 319.925781 224.433594 319.914062 226.984375 C 319.898438 229.535156 319.792969 232.082031 319.59375 234.621094 C 319.390625 237.164062 319.097656 239.695312 318.710938 242.214844 C 318.320312 244.734375 317.839844 247.238281 317.269531 249.722656 C 316.695312 252.207031 316.03125 254.667969 315.277344 257.101562 C 314.523438 259.539062 313.683594 261.945312 312.75 264.316406 C 311.816406 266.691406 310.800781 269.027344 309.695312 271.324219 C 308.589844 273.625 307.40625 275.878906 306.132812 278.089844 C 304.863281 280.300781 303.511719 282.460938 302.082031 284.570312 C 300.652344 286.679688 299.144531 288.738281 297.5625 290.738281 C 295.980469 292.734375 294.328125 294.675781 292.601562 296.550781 C 290.878906 298.429688 289.085938 300.242188 287.226562 301.988281 C 285.367188 303.730469 283.445312 305.40625 281.464844 307.007812 C 279.480469 308.613281 277.441406 310.140625 275.347656 311.59375 C 273.25 313.046875 271.105469 314.421875 268.910156 315.714844 C 266.710938 317.007812 264.46875 318.222656 262.183594 319.347656 C 259.898438 320.476562 257.574219 321.523438 255.210938 322.480469 C 252.847656 323.4375 250.449219 324.304688 248.023438 325.085938 C 245.59375 325.863281 243.144531 326.554688 240.664062 327.152344 C 238.1875 327.753906 235.6875 328.261719 233.171875 328.675781 C 230.65625 329.089844 228.128906 329.410156 225.589844 329.640625 C 223.050781 329.867188 220.503906 330 217.957031 330.042969 L 55.316406 333.5625 C 54.640625 333.5625 53.960938 333.597656 53.285156 333.664062 C 52.613281 333.730469 51.941406 333.828125 51.277344 333.960938 C 50.609375 334.09375 49.953125 334.257812 49.304688 334.457031 C 48.652344 334.652344 48.015625 334.882812 47.390625 335.140625 C 46.761719 335.398438 46.148438 335.691406 45.550781 336.011719 C 44.953125 336.328125 44.371094 336.679688 43.808594 337.054688 C 43.242188 337.433594 42.699219 337.835938 42.175781 338.265625 C 41.648438 338.695312 41.148438 339.152344 40.667969 339.632812 C 40.1875 340.113281 39.734375 340.613281 39.300781 341.136719 C 38.871094 341.664062 38.46875 342.207031 38.089844 342.769531 C 37.714844 343.335938 37.367188 343.917969 37.046875 344.515625 C 36.726562 345.113281 36.4375 345.726562 36.175781 346.351562 C 35.917969 346.980469 35.6875 347.617188 35.492188 348.265625 C 35.292969 348.917969 35.128906 349.574219 34.996094 350.238281 C 34.863281 350.90625 34.765625 351.574219 34.699219 352.25 C 34.632812 352.925781 34.597656 353.601562 34.597656 354.28125 C 34.597656 354.960938 34.632812 355.636719 34.699219 356.3125 C 34.765625 356.988281 34.863281 357.65625 34.996094 358.324219 C 35.128906 358.988281 35.292969 359.648438 35.492188 360.296875 C 35.6875 360.945312 35.917969 361.582031 36.175781 362.210938 C 36.4375 362.835938 36.726562 363.449219 37.046875 364.046875 C 37.367188 364.648438 37.714844 365.226562 38.089844 365.792969 C 38.46875 366.355469 38.871094 366.902344 39.300781 367.425781 C 39.734375 367.949219 40.1875 368.453125 40.667969 368.933594 C 41.148438 369.410156 41.648438 369.867188 42.175781 370.296875 C 42.699219 370.726562 43.242188 371.132812 43.808594 371.507812 C 44.371094 371.886719 44.953125 372.234375 45.550781 372.554688 C 46.148438 372.875 46.761719 373.164062 47.390625 373.421875 C 48.015625 373.683594 48.652344 373.910156 49.304688 374.109375 C 49.953125 374.304688 50.609375 374.46875 51.277344 374.601562 C 51.941406 374.734375 52.613281 374.832031 53.285156 374.898438 C 53.960938 374.964844 54.640625 375 55.316406 375 L 218.371094 370.648438 C 221.90625 370.558594 225.4375 370.339844 228.960938 369.992188 C 232.480469 369.644531 235.988281 369.167969 239.472656 368.566406 C 242.960938 367.960938 246.421875 367.230469 249.855469 366.371094 C 253.289062 365.515625 256.6875 364.53125 260.046875 363.425781 C 263.410156 362.320312 266.726562 361.09375 269.996094 359.742188 C 273.269531 358.394531 276.488281 356.925781 279.652344 355.34375 C 282.816406 353.757812 285.917969 352.058594 288.957031 350.246094 C 292 348.433594 294.96875 346.515625 297.867188 344.484375 C 300.765625 342.457031 303.589844 340.324219 306.332031 338.085938 C 309.074219 335.851562 311.734375 333.519531 314.304688 331.089844 C 316.878906 328.65625 319.359375 326.136719 321.746094 323.523438 C 324.132812 320.914062 326.425781 318.21875 328.613281 315.4375 C 330.804688 312.65625 332.890625 309.800781 334.871094 306.871094 C 336.855469 303.9375 338.726562 300.9375 340.488281 297.867188 C 342.25 294.796875 343.898438 291.667969 345.429688 288.476562 C 346.960938 285.289062 348.375 282.046875 349.671875 278.753906 C 350.96875 275.460938 352.140625 272.125 353.191406 268.742188 C 354.242188 265.363281 355.167969 261.953125 355.96875 258.503906 C 356.773438 255.058594 357.445312 251.585938 357.992188 248.089844 C 358.539062 244.59375 358.957031 241.082031 359.25 237.554688 C 359.539062 234.027344 359.699219 230.492188 359.730469 226.953125 C 359.761719 223.414062 359.664062 219.878906 359.4375 216.347656 C 359.210938 212.816406 358.851562 209.296875 358.367188 205.792969 C 357.882812 202.285156 357.269531 198.804688 356.53125 195.34375 C 355.789062 191.882812 354.925781 188.453125 353.933594 185.054688 C 352.941406 181.65625 351.828125 178.300781 350.59375 174.984375 C 349.355469 171.667969 348 168.402344 346.523438 165.1875 C 345.046875 161.96875 343.457031 158.8125 341.75 155.710938 C 340.042969 152.609375 338.222656 149.578125 336.292969 146.609375 C 334.363281 143.644531 332.328125 140.75 330.1875 137.933594 C 328.046875 135.113281 325.808594 132.378906 323.464844 129.726562 C 321.125 127.070312 318.6875 124.507812 316.160156 122.03125 Z M 317.195312 121.824219 " fill-opacity="1" fill-rule="nonzero"/></svg>