<svg xmlns="http://www.w3.org/2000/svg" xmlns:xlink="http://www.w3.org/1999/xlink" width="500" zoomAndPan="magnify" viewBox="0 0 375 374.999991" height="500" preserveAspectRatio="xMidYMid meet" version="1.0"><defs><g/><clipPath id="0f12b81e01"><path d="M 57.183594 144 L 318 144 L 318 275.25 L 57.183594 275.25 Z M 57.183594 144 " clip-rule="nonzero"/></clipPath></defs><path fill="#81a83b" d="M 275.984375 10.945312 L 275.589844 14.796875 C 274.4375 26.378906 272.796875 34.804688 270.664062 40.074219 C 269.859375 42.222656 268.902344 44.25 267.792969 46.15625 L 265.984375 48.902344 L 263.890625 51.429688 C 262.90625 52.488281 261.839844 53.476562 260.703125 54.386719 C 257.183594 57.152344 253.410156 59.152344 249.378906 60.386719 C 245.113281 61.578125 241.707031 61.921875 239.160156 61.417969 C 236.128906 60.792969 234.113281 59.753906 233.105469 58.296875 C 231.347656 55.957031 230.621094 52.824219 230.933594 48.902344 C 231.246094 44.980469 232.238281 41.019531 233.910156 37.027344 C 234.726562 35.074219 235.644531 33.257812 236.667969 31.574219 L 238.246094 29.214844 C 239.335938 27.742188 240.46875 26.527344 241.640625 25.574219 C 243.996094 23.746094 246.414062 22.636719 248.890625 22.25 C 250.121094 22.023438 251.34375 21.886719 252.554688 21.835938 L 259.519531 21.621094 L 261.117188 21.425781 C 262.15625 21.246094 263.144531 20.972656 264.085938 20.605469 C 267.035156 19.753906 271 16.535156 275.984375 10.945312 " fill-opacity="1" fill-rule="nonzero"/><path fill="#81a83b" d="M 145.355469 34.371094 L 147.601562 34.300781 C 160.949219 33.824219 170.320312 34.152344 175.714844 35.285156 C 179.195312 35.886719 182.367188 36.832031 185.234375 38.125 C 186.660156 38.777344 187.988281 39.535156 189.222656 40.40625 L 191.59375 42.335938 C 197.597656 48.597656 200.339844 55.492188 199.824219 63.023438 C 199.550781 66.496094 198.378906 69.328125 196.304688 71.515625 C 195.257812 72.578125 194.027344 73.429688 192.613281 74.066406 C 191.914062 74.382812 191.175781 74.648438 190.402344 74.863281 C 190.050781 75.035156 188.832031 75.234375 186.746094 75.460938 C 185.488281 75.644531 183.347656 75.464844 180.324219 74.921875 C 178.570312 74.535156 176.824219 73.957031 175.078125 73.183594 C 171.597656 71.667969 168.296875 69.328125 165.179688 66.160156 C 162.125 63 159.273438 59.304688 156.632812 55.066406 C 152.699219 48.621094 148.9375 41.726562 145.355469 34.371094 " fill-opacity="1" fill-rule="nonzero"/><g clip-path="url(#0f12b81e01)"><path fill="#000000" d="M 148.359375 241.898438 L 95.511719 274.933594 C 94.871094 275.332031 94.09375 275.460938 93.355469 275.289062 C 92.621094 275.117188 91.980469 274.65625 91.585938 274.011719 L 57.945312 219.34375 C 57.164062 218.074219 57.5 216.414062 58.714844 215.542969 C 76.230469 203.015625 93.585938 190.597656 106.1875 179.640625 C 108.421875 177.699219 110.503906 175.804688 112.539062 173.953125 L 112.539062 173.957031 C 114.414062 172.25 116.246094 170.578125 118.074219 168.992188 C 125.421875 162.605469 132.835938 157.347656 143.835938 155.0625 C 148.796875 154.03125 154.410156 153.621094 160.410156 153.621094 C 174.34375 153.621094 190.890625 155.835938 207.171875 158.007812 C 207.464844 158.046875 207.746094 158.132812 208.011719 158.257812 C 210.546875 159.457031 213.300781 160.902344 215.613281 166.632812 C 217.679688 171.761719 220.183594 182.601562 209.121094 189.101562 C 199.347656 194.84375 178.492188 196.78125 158.890625 198.671875 C 157.355469 198.820312 155.984375 197.71875 155.796875 196.1875 C 155.613281 194.65625 156.679688 193.257812 158.207031 193.03125 C 172.058594 190.992188 186.050781 188.933594 196.265625 188.101562 L 196.265625 188.105469 C 199.863281 187.8125 202.988281 187.671875 206.019531 187.535156 C 208.988281 187.402344 211.867188 187.273438 215.097656 187.011719 C 217.992188 186.773438 221.179688 186.433594 224.941406 185.882812 C 237.425781 184.050781 255.382812 180.0625 264.855469 173.425781 C 269.449219 170.207031 272.117188 166.304688 274.96875 162.09375 C 277.621094 158.179688 280.488281 153.894531 285.246094 150.5625 C 285.472656 150.402344 285.703125 150.246094 285.941406 150.089844 C 290.871094 146.859375 297.71875 144.636719 303.699219 144.636719 C 310.09375 144.636719 316.898438 147.414062 317.25 155.71875 C 317.804688 168.703125 300.820312 194.976562 287.441406 209.242188 C 273.492188 224.113281 262.09375 227.558594 252.15625 229.410156 C 249.539062 229.894531 247.03125 230.273438 244.632812 230.632812 C 242.328125 230.980469 240.136719 231.3125 237.96875 231.714844 C 234.019531 232.449219 230.230469 233.414062 226.328125 235.09375 C 223.867188 236.148438 221.328125 237.503906 218.523438 239.003906 C 215.453125 240.640625 212.105469 242.433594 208.460938 244 C 204.183594 245.839844 199.449219 247.394531 194.109375 248.101562 C 191.683594 248.421875 189.164062 248.566406 186.578125 248.566406 C 174.34375 248.566406 160.074219 245.359375 146.230469 242.261719 L 148.359375 241.898438 M 145.34375 237.078125 C 145.980469 236.683594 146.742188 236.550781 147.472656 236.714844 C 161.503906 239.855469 175.101562 242.882812 186.578125 242.882812 C 188.957031 242.882812 191.226562 242.75 193.363281 242.46875 C 198.050781 241.847656 202.273438 240.472656 206.214844 238.777344 C 209.605469 237.320312 212.75 235.644531 215.84375 233.992188 C 218.605469 232.515625 221.363281 231.042969 224.085938 229.871094 C 228.503906 227.96875 232.734375 226.90625 236.929688 226.125 L 236.929688 226.128906 C 239.210938 225.703125 241.5 225.359375 243.785156 225.015625 C 246.195312 224.652344 248.613281 224.289062 251.117188 223.820312 L 251.117188 223.824219 C 260.128906 222.144531 270.34375 219.164062 283.296875 205.355469 C 296.816406 190.941406 312.011719 166.285156 311.574219 155.960938 C 311.414062 152.207031 308.828125 150.320312 303.699219 150.320312 C 298.917969 150.320312 293.140625 152.164062 289.058594 154.84375 C 288.871094 154.964844 288.6875 155.089844 288.507812 155.21875 C 284.726562 157.863281 282.386719 161.277344 279.675781 165.28125 C 276.847656 169.457031 273.667969 174.191406 268.117188 178.078125 C 257.410156 185.582031 238.183594 189.6875 225.765625 191.503906 C 221.875 192.074219 218.570312 192.429688 215.558594 192.675781 C 212.210938 192.949219 209.234375 193.082031 206.273438 193.210938 L 206.273438 193.214844 C 203.234375 193.347656 200.207031 193.484375 196.726562 193.769531 C 186.738281 194.578125 172.957031 196.605469 159.03125 198.65625 L 158.347656 193.015625 C 178.722656 191.050781 197.847656 189.132812 206.242188 184.203125 C 213.34375 180.03125 212.203125 173.371094 210.339844 168.757812 C 208.722656 164.742188 207.261719 164.191406 205.578125 163.394531 L 206.421875 163.640625 C 190.023438 161.453125 173.886719 159.304688 160.410156 159.304688 C 154.636719 159.304688 149.441406 159.703125 144.992188 160.625 C 135.375 162.621094 128.839844 167.160156 121.804688 173.28125 C 120.035156 174.816406 118.246094 176.445312 116.363281 178.160156 C 114.335938 180.003906 112.203125 181.941406 109.917969 183.929688 C 97.066406 195.101562 79.464844 207.691406 62.019531 220.167969 L 62.789062 216.367188 L 96.425781 271.03125 L 92.5 270.113281 Z M 145.34375 237.078125 " fill-opacity="1" fill-rule="nonzero"/></g><path fill="#000000" d="M 140.921875 154.6875 C 141.921875 148.738281 143.035156 141.425781 149.710938 136.488281 C 155.953125 131.871094 166.9375 129.558594 176.882812 127.40625 L 174.675781 129.742188 C 176.152344 120.28125 177.742188 109.105469 188.210938 102.785156 C 194.453125 99.019531 203.574219 97.144531 212.117188 97.144531 C 217.46875 97.144531 222.808594 97.875 227.285156 99.480469 C 234.347656 102.007812 238.941406 106.601562 242.695312 110.320312 C 245.292969 112.890625 247.339844 114.886719 249.609375 116.117188 C 252.570312 117.722656 256.128906 118.132812 260.367188 118.574219 C 263.949219 118.949219 268.097656 119.355469 271.761719 121.027344 C 279.46875 124.546875 284.394531 133.363281 288.71875 140.898438 C 289.5 142.261719 289.03125 143.996094 287.671875 144.777344 C 286.308594 145.558594 284.574219 145.089844 283.792969 143.730469 C 279.136719 135.621094 275.089844 128.792969 269.398438 126.195312 C 266.734375 124.980469 263.566406 124.621094 259.773438 124.226562 C 255.773438 123.808594 251.027344 123.351562 246.898438 121.113281 C 243.78125 119.421875 241.152344 116.785156 238.699219 114.355469 L 238.699219 114.359375 C 234.894531 110.589844 231.105469 106.882812 225.371094 104.832031 C 221.664062 103.503906 217.007812 102.828125 212.117188 102.828125 C 204.199219 102.828125 196.207031 104.59375 191.148438 107.648438 L 191.148438 107.652344 C 183.289062 112.394531 181.847656 120.652344 180.292969 130.621094 C 180.109375 131.78125 179.234375 132.710938 178.085938 132.960938 C 167.578125 135.234375 158.105469 137.347656 153.09375 141.054688 L 153.09375 141.058594 C 148.515625 144.441406 147.578125 149.355469 146.527344 155.628906 C 146.265625 157.175781 144.800781 158.21875 143.253906 157.960938 C 141.703125 157.699219 140.660156 156.234375 140.921875 154.6875 Z M 140.921875 154.6875 " fill-opacity="1" fill-rule="nonzero"/><path fill="#000000" d="M 182.371094 53.21875 L 182.425781 53.246094 C 194.433594 59.285156 207.308594 65.707031 213.667969 72.945312 C 220.441406 80.648438 219.84375 89.101562 219.410156 96.300781 C 219.320312 97.867188 217.976562 99.058594 216.414062 98.96875 C 214.851562 98.878906 213.652344 97.542969 213.738281 95.980469 C 214.367188 84.265625 214.984375 71.671875 221.980469 60.496094 L 221.980469 60.5 C 228.878906 49.476562 241.863281 40.070312 254.160156 31.113281 C 255.429688 30.1875 257.207031 30.46875 258.128906 31.734375 C 259.054688 33.003906 258.777344 34.78125 257.507812 35.707031 C 244.902344 44.890625 232.984375 53.625 226.796875 63.511719 C 220.707031 73.246094 220.054688 84.324219 219.414062 96.285156 L 213.738281 95.960938 C 214.179688 88.578125 214.453125 82.449219 209.398438 76.695312 C 203.949219 70.496094 192.355469 64.601562 179.871094 58.324219 L 179.816406 58.296875 C 178.414062 57.589844 177.851562 55.882812 178.554688 54.480469 C 179.257812 53.078125 180.96875 52.515625 182.371094 53.21875 Z M 182.371094 53.21875 " fill-opacity="1" fill-rule="nonzero"/><path fill="#000000" d="M 220.65625 61.695312 C 222.628906 47.777344 224.703125 32.476562 230.917969 24.539062 C 235.816406 18.277344 243.042969 16.722656 249.296875 15.292969 C 251.539062 14.78125 253.6875 14.285156 255.78125 13.636719 C 263.953125 11.097656 271.644531 6.058594 279.75 0.722656 C 280.675781 0.113281 281.863281 0.09375 282.804688 0.675781 C 283.746094 1.253906 284.265625 2.328125 284.136719 3.425781 C 281.984375 21.832031 279.773438 41.566406 271.394531 52.71875 C 262.761719 64.207031 248.007812 66.273438 234.902344 68.242188 C 233.347656 68.472656 231.902344 67.40625 231.667969 65.851562 C 231.4375 64.300781 232.503906 62.855469 234.058594 62.621094 C 247.789062 60.558594 259.871094 58.59375 266.847656 49.304688 C 274.082031 39.679688 276.257812 21.882812 278.492188 2.765625 L 282.875 5.46875 C 274.917969 10.707031 266.546875 16.242188 257.46875 19.0625 C 255.132812 19.789062 252.769531 20.328125 250.566406 20.832031 C 243.957031 22.34375 238.855469 23.613281 235.394531 28.039062 C 230.355469 34.476562 228.367188 47.796875 226.28125 62.496094 C 226.0625 64.046875 224.625 65.128906 223.070312 64.910156 C 221.515625 64.6875 220.433594 63.25 220.65625 61.695312 Z M 220.65625 61.695312 " fill-opacity="1" fill-rule="nonzero"/><path fill="#000000" d="M 205.117188 69.96875 C 202.078125 56.421875 199.253906 44.425781 192.277344 38.511719 C 186.429688 33.550781 177.265625 32.558594 167.84375 31.644531 C 166.191406 31.484375 164.542969 31.324219 162.949219 31.136719 C 152.503906 29.925781 144.699219 27.667969 137.085938 25.472656 L 140.558594 21.808594 L 140.589844 21.902344 C 147.554688 41.960938 154.152344 60.640625 163.609375 68.605469 L 163.609375 68.609375 C 168.316406 72.570312 173.898438 73.929688 180.242188 73.929688 C 186.015625 73.929688 192.191406 72.808594 198.6875 71.621094 C 200.234375 71.335938 201.714844 72.359375 201.996094 73.902344 C 202.277344 75.445312 201.253906 76.925781 199.710938 77.210938 C 193.328125 78.378906 186.628906 79.613281 180.242188 79.613281 C 173.0625 79.613281 166.007812 78.058594 159.949219 72.953125 C 148.996094 63.722656 141.921875 43.074219 135.222656 23.765625 L 135.191406 23.671875 C 134.84375 22.671875 135.082031 21.558594 135.8125 20.785156 C 136.542969 20.015625 137.644531 19.71875 138.664062 20.011719 C 146.261719 22.203125 153.667969 24.339844 163.605469 25.492188 C 165.136719 25.671875 166.734375 25.824219 168.394531 25.988281 C 177.277344 26.851562 188.480469 27.839844 195.953125 34.175781 C 204.710938 41.601562 207.792969 55.941406 210.660156 68.726562 C 211.003906 70.257812 210.042969 71.777344 208.511719 72.121094 C 206.980469 72.464844 205.460938 71.5 205.117188 69.96875 Z M 205.117188 69.96875 " fill-opacity="1" fill-rule="nonzero"/><g fill="#000000" fill-opacity="1"><g transform="translate(39.952507, 332.314271)"><g><path d="M 20.25 0 L 3.625 0 L 3.625 -28.84375 L 20.25 -28.84375 L 20.25 -23.828125 L 9.75 -23.828125 L 9.75 -17.5 L 19.515625 -17.5 L 19.515625 -12.484375 L 9.75 -12.484375 L 9.75 -5.046875 L 20.25 -5.046875 Z M 20.25 0 "/></g></g></g><g fill="#000000" fill-opacity="1"><g transform="translate(70.949229, 332.314271)"><g><path d="M 15.875 -24.171875 C 13.570312 -24.171875 11.789062 -23.304688 10.53125 -21.578125 C 9.269531 -19.847656 8.640625 -17.4375 8.640625 -14.34375 C 8.640625 -7.914062 11.050781 -4.703125 15.875 -4.703125 C 17.90625 -4.703125 20.359375 -5.207031 23.234375 -6.21875 L 23.234375 -1.078125 C 20.867188 -0.0976562 18.226562 0.390625 15.3125 0.390625 C 11.113281 0.390625 7.898438 -0.878906 5.671875 -3.421875 C 3.453125 -5.960938 2.34375 -9.617188 2.34375 -14.390625 C 2.34375 -17.378906 2.890625 -20.003906 3.984375 -22.265625 C 5.078125 -24.523438 6.644531 -26.253906 8.6875 -27.453125 C 10.738281 -28.660156 13.132812 -29.265625 15.875 -29.265625 C 18.675781 -29.265625 21.492188 -28.585938 24.328125 -27.234375 L 22.359375 -22.25 C 21.273438 -22.769531 20.1875 -23.21875 19.09375 -23.59375 C 18 -23.976562 16.925781 -24.171875 15.875 -24.171875 Z M 15.875 -24.171875 "/></g></g></g><g fill="#000000" fill-opacity="1"><g transform="translate(105.063358, 332.314271)"><g><path d="M 29.8125 -14.46875 C 29.8125 -9.6875 28.625 -6.015625 26.25 -3.453125 C 23.882812 -0.890625 20.492188 0.390625 16.078125 0.390625 C 11.660156 0.390625 8.265625 -0.890625 5.890625 -3.453125 C 3.523438 -6.015625 2.34375 -9.695312 2.34375 -14.5 C 2.34375 -19.300781 3.53125 -22.96875 5.90625 -25.5 C 8.28125 -28.03125 11.6875 -29.296875 16.125 -29.296875 C 20.550781 -29.296875 23.9375 -28.019531 26.28125 -25.46875 C 28.632812 -22.914062 29.8125 -19.25 29.8125 -14.46875 Z M 8.765625 -14.46875 C 8.765625 -11.238281 9.375 -8.804688 10.59375 -7.171875 C 11.8125 -5.546875 13.640625 -4.734375 16.078125 -4.734375 C 20.960938 -4.734375 23.40625 -7.976562 23.40625 -14.46875 C 23.40625 -20.957031 20.976562 -24.203125 16.125 -24.203125 C 13.6875 -24.203125 11.847656 -23.382812 10.609375 -21.75 C 9.378906 -20.113281 8.765625 -17.6875 8.765625 -14.46875 Z M 8.765625 -14.46875 "/></g></g></g><g fill="#000000" fill-opacity="1"><g transform="translate(145.589869, 332.314271)"><g><path d="M 9.640625 0 L 3.625 0 L 3.625 -28.84375 L 20.15625 -28.84375 L 20.15625 -23.828125 L 9.640625 -23.828125 L 9.640625 -16.390625 L 19.4375 -16.390625 L 19.4375 -11.40625 L 9.640625 -11.40625 Z M 9.640625 0 "/></g></g></g><g fill="#000000" fill-opacity="1"><g transform="translate(176.132778, 332.314271)"><g><path d="M 9.75 -16.046875 L 11.71875 -16.046875 C 13.65625 -16.046875 15.082031 -16.363281 16 -17 C 16.914062 -17.644531 17.375 -18.660156 17.375 -20.046875 C 17.375 -21.410156 16.90625 -22.378906 15.96875 -22.953125 C 15.03125 -23.535156 13.570312 -23.828125 11.59375 -23.828125 L 9.75 -23.828125 Z M 9.75 -11.0625 L 9.75 0 L 3.625 0 L 3.625 -28.84375 L 12.03125 -28.84375 C 15.957031 -28.84375 18.859375 -28.128906 20.734375 -26.703125 C 22.617188 -25.273438 23.5625 -23.109375 23.5625 -20.203125 C 23.5625 -18.503906 23.09375 -16.992188 22.15625 -15.671875 C 21.21875 -14.347656 19.894531 -13.3125 18.1875 -12.5625 C 22.53125 -6.082031 25.359375 -1.894531 26.671875 0 L 19.890625 0 L 13 -11.0625 Z M 9.75 -11.0625 "/></g></g></g><g fill="#000000" fill-opacity="1"><g transform="translate(211.174225, 332.314271)"><g><path d="M 3.625 0 L 3.625 -28.84375 L 9.75 -28.84375 L 9.75 0 Z M 3.625 0 "/></g></g></g><g fill="#000000" fill-opacity="1"><g transform="translate(232.917374, 332.314271)"><g><path d="M 20.25 0 L 3.625 0 L 3.625 -28.84375 L 20.25 -28.84375 L 20.25 -23.828125 L 9.75 -23.828125 L 9.75 -17.5 L 19.515625 -17.5 L 19.515625 -12.484375 L 9.75 -12.484375 L 9.75 -5.046875 L 20.25 -5.046875 Z M 20.25 0 "/></g></g></g><g fill="#000000" fill-opacity="1"><g transform="translate(263.914094, 332.314271)"><g><path d="M 29.21875 0 L 21.453125 0 L 8.890625 -21.828125 L 8.71875 -21.828125 C 8.96875 -17.972656 9.09375 -15.222656 9.09375 -13.578125 L 9.09375 0 L 3.625 0 L 3.625 -28.84375 L 11.34375 -28.84375 L 23.875 -7.234375 L 24.015625 -7.234375 C 23.816406 -10.984375 23.71875 -13.632812 23.71875 -15.1875 L 23.71875 -28.84375 L 29.21875 -28.84375 Z M 29.21875 0 "/></g></g></g><g fill="#000000" fill-opacity="1"><g transform="translate(305.131175, 332.314271)"><g><path d="M 27.5625 -14.703125 C 27.5625 -9.953125 26.207031 -6.3125 23.5 -3.78125 C 20.800781 -1.257812 16.898438 0 11.796875 0 L 3.625 0 L 3.625 -28.84375 L 12.6875 -28.84375 C 17.394531 -28.84375 21.050781 -27.597656 23.65625 -25.109375 C 26.257812 -22.628906 27.5625 -19.160156 27.5625 -14.703125 Z M 21.203125 -14.546875 C 21.203125 -20.734375 18.46875 -23.828125 13 -23.828125 L 9.75 -23.828125 L 9.75 -5.046875 L 12.375 -5.046875 C 18.257812 -5.046875 21.203125 -8.210938 21.203125 -14.546875 Z M 21.203125 -14.546875 "/></g></g></g><g fill="#000000" fill-opacity="1"><g transform="translate(87.431405, 369.552993)"><g><path d="M 18.375 0 L 15.71875 0 L 4.796875 -16.796875 L 4.6875 -16.796875 C 4.832031 -14.828125 4.90625 -13.019531 4.90625 -11.375 L 4.90625 0 L 2.75 0 L 2.75 -20.015625 L 5.375 -20.015625 L 16.28125 -3.28125 L 16.390625 -3.28125 C 16.378906 -3.53125 16.335938 -4.320312 16.265625 -5.65625 C 16.203125 -7 16.179688 -7.957031 16.203125 -8.53125 L 16.203125 -20.015625 L 18.375 -20.015625 Z M 18.375 0 "/></g></g></g><g fill="#000000" fill-opacity="1"><g transform="translate(127.050376, 369.552993)"><g><path d="M 15.328125 0 L 12.84375 -6.359375 L 4.8125 -6.359375 L 2.359375 0 L 0 0 L 7.90625 -20.09375 L 9.875 -20.09375 L 17.734375 0 Z M 12.109375 -8.453125 L 9.78125 -14.65625 C 9.476562 -15.445312 9.171875 -16.410156 8.859375 -17.546875 C 8.648438 -16.671875 8.363281 -15.707031 8 -14.65625 L 5.640625 -8.453125 Z M 12.109375 -8.453125 "/></g></g></g><g fill="#000000" fill-opacity="1"><g transform="translate(163.277773, 369.552993)"><g><path d="M 8.90625 0 L 6.578125 0 L 6.578125 -17.9375 L 0.25 -17.9375 L 0.25 -20.015625 L 15.25 -20.015625 L 15.25 -17.9375 L 8.90625 -17.9375 Z M 8.90625 0 "/></g></g></g><g fill="#000000" fill-opacity="1"><g transform="translate(197.276046, 369.552993)"><g><path d="M 17.859375 -20.015625 L 17.859375 -7.0625 C 17.859375 -4.78125 17.171875 -2.984375 15.796875 -1.671875 C 14.421875 -0.367188 12.523438 0.28125 10.109375 0.28125 C 7.703125 0.28125 5.835938 -0.375 4.515625 -1.6875 C 3.203125 -3.007812 2.546875 -4.820312 2.546875 -7.125 L 2.546875 -20.015625 L 4.875 -20.015625 L 4.875 -6.953125 C 4.875 -5.285156 5.328125 -4.003906 6.234375 -3.109375 C 7.148438 -2.210938 8.492188 -1.765625 10.265625 -1.765625 C 11.953125 -1.765625 13.25 -2.210938 14.15625 -3.109375 C 15.070312 -4.015625 15.53125 -5.304688 15.53125 -6.984375 L 15.53125 -20.015625 Z M 17.859375 -20.015625 "/></g></g></g><g fill="#000000" fill-opacity="1"><g transform="translate(236.170212, 369.552993)"><g><path d="M 5.078125 -8.328125 L 5.078125 0 L 2.75 0 L 2.75 -20.015625 L 8.234375 -20.015625 C 10.691406 -20.015625 12.503906 -19.539062 13.671875 -18.59375 C 14.847656 -17.65625 15.4375 -16.242188 15.4375 -14.359375 C 15.4375 -11.710938 14.097656 -9.925781 11.421875 -9 L 16.84375 0 L 14.09375 0 L 9.25 -8.328125 Z M 5.078125 -10.3125 L 8.265625 -10.3125 C 9.910156 -10.3125 11.113281 -10.640625 11.875 -11.296875 C 12.644531 -11.953125 13.03125 -12.929688 13.03125 -14.234375 C 13.03125 -15.554688 12.640625 -16.507812 11.859375 -17.09375 C 11.078125 -17.675781 9.828125 -17.96875 8.109375 -17.96875 L 5.078125 -17.96875 Z M 5.078125 -10.3125 "/></g></g></g><g fill="#000000" fill-opacity="1"><g transform="translate(271.987347, 369.552993)"><g><path d="M 13.90625 0 L 2.75 0 L 2.75 -20.015625 L 13.90625 -20.015625 L 13.90625 -17.9375 L 5.078125 -17.9375 L 5.078125 -11.5 L 13.375 -11.5 L 13.375 -9.4375 L 5.078125 -9.4375 L 5.078125 -2.078125 L 13.90625 -2.078125 Z M 13.90625 0 "/></g></g></g></svg>